<mxfile host="Electron" agent="Mozilla/5.0 (Windows NT 10.0; Win64; x64) AppleWebKit/537.36 (KHTML, like Gecko) draw.io/25.0.1 Chrome/128.0.6613.186 Electron/32.2.6 Safari/537.36" version="25.0.1">
  <diagram name="Page-1" id="uhRgSy8MNYvzWCT_v4EA">
    <mxGraphModel dx="1290" dy="621" grid="1" gridSize="10" guides="1" tooltips="1" connect="1" arrows="1" fold="1" page="1" pageScale="1" pageWidth="850" pageHeight="1100" math="0" shadow="0">
      <root>
        <mxCell id="0" />
        <mxCell id="1" parent="0" />
        <mxCell id="ujKQxyjkaApGMPCNpli_-1" value="Vote" style="swimlane;whiteSpace=wrap;html=1;startSize=23;" parent="1" vertex="1">
          <mxGeometry x="200" y="170" width="192" height="200" as="geometry" />
        </mxCell>
        <mxCell id="YSKjW9QsskC6ZYnmGTx8-3" value="-password" style="text;html=1;align=center;verticalAlign=middle;resizable=0;points=[];autosize=1;strokeColor=none;fillColor=none;" parent="ujKQxyjkaApGMPCNpli_-1" vertex="1">
          <mxGeometry y="81" width="80" height="30" as="geometry" />
        </mxCell>
        <mxCell id="ujKQxyjkaApGMPCNpli_-4" value="-age" style="text;html=1;align=center;verticalAlign=middle;resizable=0;points=[];autosize=1;strokeColor=none;fillColor=none;" parent="ujKQxyjkaApGMPCNpli_-1" vertex="1">
          <mxGeometry x="-1" y="65" width="50" height="30" as="geometry" />
        </mxCell>
        <mxCell id="ujKQxyjkaApGMPCNpli_-3" value="userID" style="text;html=1;align=center;verticalAlign=middle;resizable=0;points=[];autosize=1;strokeColor=none;fillColor=none;" parent="ujKQxyjkaApGMPCNpli_-1" vertex="1">
          <mxGeometry x="3" y="42" width="60" height="30" as="geometry" />
        </mxCell>
        <mxCell id="ujKQxyjkaApGMPCNpli_-2" value="-name" style="text;html=1;align=center;verticalAlign=middle;resizable=0;points=[];autosize=1;strokeColor=none;fillColor=none;" parent="ujKQxyjkaApGMPCNpli_-1" vertex="1">
          <mxGeometry x="3" y="23" width="60" height="30" as="geometry" />
        </mxCell>
        <mxCell id="ujKQxyjkaApGMPCNpli_-5" value="" style="endArrow=none;html=1;rounded=0;" parent="ujKQxyjkaApGMPCNpli_-1" edge="1">
          <mxGeometry width="50" height="50" relative="1" as="geometry">
            <mxPoint x="-1" y="111" as="sourcePoint" />
            <mxPoint x="190" y="111" as="targetPoint" />
          </mxGeometry>
        </mxCell>
        <mxCell id="ujKQxyjkaApGMPCNpli_-8" value="Candidate" style="swimlane;whiteSpace=wrap;html=1;" parent="1" vertex="1">
          <mxGeometry x="484" y="170" width="196" height="201" as="geometry" />
        </mxCell>
        <mxCell id="YSKjW9QsskC6ZYnmGTx8-7" value="" style="endArrow=none;html=1;rounded=0;" parent="ujKQxyjkaApGMPCNpli_-8" edge="1">
          <mxGeometry width="50" height="50" relative="1" as="geometry">
            <mxPoint y="111" as="sourcePoint" />
            <mxPoint x="196" y="110" as="targetPoint" />
          </mxGeometry>
        </mxCell>
        <mxCell id="YSKjW9QsskC6ZYnmGTx8-6" value="Inec" style="swimlane;whiteSpace=wrap;html=1;startSize=23;" parent="1" vertex="1">
          <mxGeometry x="320" y="473" width="280" height="409" as="geometry" />
        </mxCell>
        <mxCell id="YSKjW9QsskC6ZYnmGTx8-21" value="" style="endArrow=none;html=1;rounded=0;" parent="YSKjW9QsskC6ZYnmGTx8-6" edge="1">
          <mxGeometry width="50" height="50" relative="1" as="geometry">
            <mxPoint x="-0.5" y="187" as="sourcePoint" />
            <mxPoint x="280" y="187" as="targetPoint" />
          </mxGeometry>
        </mxCell>
        <mxCell id="J7cfStO0mkX40FQBruFq-1" value="-numberOfRegistration" style="text;html=1;align=center;verticalAlign=middle;resizable=0;points=[];autosize=1;strokeColor=none;fillColor=none;" vertex="1" parent="YSKjW9QsskC6ZYnmGTx8-6">
          <mxGeometry x="1" y="24" width="140" height="30" as="geometry" />
        </mxCell>
        <mxCell id="YSKjW9QsskC6ZYnmGTx8-8" value="" style="endArrow=classic;html=1;rounded=0;" parent="1" edge="1">
          <mxGeometry width="50" height="50" relative="1" as="geometry">
            <mxPoint x="470" y="471" as="sourcePoint" />
            <mxPoint x="640" y="370" as="targetPoint" />
            <Array as="points">
              <mxPoint x="470" y="420" />
              <mxPoint x="640" y="420" />
            </Array>
          </mxGeometry>
        </mxCell>
        <mxCell id="YSKjW9QsskC6ZYnmGTx8-9" value="" style="endArrow=classic;html=1;rounded=0;" parent="1" edge="1">
          <mxGeometry width="50" height="50" relative="1" as="geometry">
            <mxPoint x="470" y="421" as="sourcePoint" />
            <mxPoint x="285" y="369" as="targetPoint" />
            <Array as="points">
              <mxPoint x="285" y="421" />
            </Array>
          </mxGeometry>
        </mxCell>
        <mxCell id="YSKjW9QsskC6ZYnmGTx8-10" value="Election" style="swimlane;whiteSpace=wrap;html=1;" parent="1" vertex="1">
          <mxGeometry x="401" y="939" width="160" height="200" as="geometry" />
        </mxCell>
        <mxCell id="YSKjW9QsskC6ZYnmGTx8-22" value="" style="endArrow=none;html=1;rounded=0;" parent="YSKjW9QsskC6ZYnmGTx8-10" edge="1">
          <mxGeometry width="50" height="50" relative="1" as="geometry">
            <mxPoint y="125" as="sourcePoint" />
            <mxPoint x="160" y="125" as="targetPoint" />
          </mxGeometry>
        </mxCell>
        <mxCell id="YSKjW9QsskC6ZYnmGTx8-14" value="" style="endArrow=none;html=1;rounded=0;exitX=1;exitY=0.75;exitDx=0;exitDy=0;" parent="1" edge="1" source="YSKjW9QsskC6ZYnmGTx8-6">
          <mxGeometry width="50" height="50" relative="1" as="geometry">
            <mxPoint x="549" y="779" as="sourcePoint" />
            <mxPoint x="639" y="419" as="targetPoint" />
            <Array as="points">
              <mxPoint x="639" y="779" />
            </Array>
          </mxGeometry>
        </mxCell>
        <mxCell id="YSKjW9QsskC6ZYnmGTx8-15" value="" style="endArrow=none;html=1;rounded=0;" parent="1" edge="1">
          <mxGeometry width="50" height="50" relative="1" as="geometry">
            <mxPoint x="320" y="771" as="sourcePoint" />
            <mxPoint x="286" y="421" as="targetPoint" />
            <Array as="points">
              <mxPoint x="306" y="771" />
              <mxPoint x="286" y="771" />
            </Array>
          </mxGeometry>
        </mxCell>
        <mxCell id="YSKjW9QsskC6ZYnmGTx8-16" value="" style="endArrow=classic;html=1;rounded=0;" parent="1" edge="1">
          <mxGeometry width="50" height="50" relative="1" as="geometry">
            <mxPoint x="480" y="940" as="sourcePoint" />
            <mxPoint x="480.5" y="883" as="targetPoint" />
          </mxGeometry>
        </mxCell>
        <mxCell id="YSKjW9QsskC6ZYnmGTx8-17" value="-name" style="text;html=1;align=center;verticalAlign=middle;resizable=0;points=[];autosize=1;strokeColor=none;fillColor=none;" parent="1" vertex="1">
          <mxGeometry x="484" y="194" width="60" height="30" as="geometry" />
        </mxCell>
        <mxCell id="YSKjW9QsskC6ZYnmGTx8-18" value="-candidateID" style="text;html=1;align=center;verticalAlign=middle;resizable=0;points=[];autosize=1;strokeColor=none;fillColor=none;" parent="1" vertex="1">
          <mxGeometry x="485" y="214" width="90" height="30" as="geometry" />
        </mxCell>
        <mxCell id="YSKjW9QsskC6ZYnmGTx8-19" value="-countVote" style="text;html=1;align=center;verticalAlign=middle;resizable=0;points=[];autosize=1;strokeColor=none;fillColor=none;" parent="1" vertex="1">
          <mxGeometry x="485" y="235" width="80" height="30" as="geometry" />
        </mxCell>
        <mxCell id="J7cfStO0mkX40FQBruFq-2" value="-voteRegistration" style="text;html=1;align=center;verticalAlign=middle;resizable=0;points=[];autosize=1;strokeColor=none;fillColor=none;" vertex="1" parent="1">
          <mxGeometry x="320" y="518" width="110" height="30" as="geometry" />
        </mxCell>
        <mxCell id="J7cfStO0mkX40FQBruFq-3" value="-voterID" style="text;html=1;align=center;verticalAlign=middle;resizable=0;points=[];autosize=1;strokeColor=none;fillColor=none;" vertex="1" parent="1">
          <mxGeometry x="319" y="538" width="70" height="30" as="geometry" />
        </mxCell>
        <mxCell id="J7cfStO0mkX40FQBruFq-4" value="-candidateID" style="text;html=1;align=center;verticalAlign=middle;resizable=0;points=[];autosize=1;strokeColor=none;fillColor=none;" vertex="1" parent="1">
          <mxGeometry x="321" y="557" width="90" height="30" as="geometry" />
        </mxCell>
        <mxCell id="J7cfStO0mkX40FQBruFq-5" value="-numberOfCandidateRegistered" style="text;html=1;align=center;verticalAlign=middle;resizable=0;points=[];autosize=1;strokeColor=none;fillColor=none;" vertex="1" parent="1">
          <mxGeometry x="320" y="576" width="190" height="30" as="geometry" />
        </mxCell>
        <mxCell id="J7cfStO0mkX40FQBruFq-6" value="-voteRegistration&amp;nbsp; &amp;nbsp; ArrayList&amp;lt;Voter&amp;gt;" style="text;html=1;align=center;verticalAlign=middle;resizable=0;points=[];autosize=1;strokeColor=none;fillColor=none;" vertex="1" parent="1">
          <mxGeometry x="320" y="597" width="220" height="30" as="geometry" />
        </mxCell>
        <mxCell id="J7cfStO0mkX40FQBruFq-8" value="-candidateRegistratin&amp;nbsp; &amp;nbsp; ArrayList&amp;lt;Candidate&amp;gt;" style="text;html=1;align=center;verticalAlign=middle;resizable=0;points=[];autosize=1;strokeColor=none;fillColor=none;" vertex="1" parent="1">
          <mxGeometry x="320" y="618" width="270" height="30" as="geometry" />
        </mxCell>
        <mxCell id="J7cfStO0mkX40FQBruFq-9" value="-voterRegistration()" style="text;html=1;align=center;verticalAlign=middle;resizable=0;points=[];autosize=1;strokeColor=none;fillColor=none;" vertex="1" parent="1">
          <mxGeometry x="321" y="659" width="130" height="30" as="geometry" />
        </mxCell>
        <mxCell id="J7cfStO0mkX40FQBruFq-10" value="-candidateRegistration()" style="text;html=1;align=center;verticalAlign=middle;resizable=0;points=[];autosize=1;strokeColor=none;fillColor=none;" vertex="1" parent="1">
          <mxGeometry x="322" y="679" width="150" height="30" as="geometry" />
        </mxCell>
      </root>
    </mxGraphModel>
  </diagram>
</mxfile>
